<?xml version="1.0" encoding="UTF-8"?>
<svg width="243px" height="274px" viewBox="0 0 243 274" version="1.1" xmlns="http://www.w3.org/2000/svg" xmlns:xlink="http://www.w3.org/1999/xlink">
    <!-- Generator: Sketch 55 (78076) - https://sketchapp.com -->
    <title>storagedone-2</title>
    <desc>Created with Sketch.</desc>
    <defs>
        <filter x="-1.3%" y="-1.1%" width="102.5%" height="102.2%" filterUnits="objectBoundingBox" id="filter-1">
            <feGaussianBlur stdDeviation="1" in="SourceGraphic"></feGaussianBlur>
        </filter>
    </defs>
    <g id="Page-1" stroke="none" stroke-width="1" fill="none" fill-rule="evenodd">
        <g id="storagedone-2" transform="translate(2.000000, 1.000000)" fill="#FFFFFF" fill-rule="nonzero">
            <g id="Group" transform="translate(119.500000, 135.600000) scale(-1, 1) rotate(-180.000000) translate(-119.500000, -135.600000) translate(0.000000, 0.600000)">
                <path d="M112.6,268.4 C111,267.8 94.8,258.7 76.6,248.1 C58.4,237.5 34.7,223.9 24,217.8 C2.1,205.5 -0.6,203.1 0.3,196.2 C1.1,190.6 4.1,188.1 23,177.6 C51.3,161.8 103.4,131.4 105.8,129.3 C108,127.3 108,126.9 108,102.4 C108,88.8 107.8,77.6 107.6,77.6 C107.3,77.6 55.5,107.3 35.5,118.8 C28.1,123.2 24.4,128.7 22.9,137.5 C22.4,141 22.1,144 22.3,144.2 C22.5,144.5 29.8,140.4 38.6,135.3 C47.3,130.2 59.4,123.3 65.3,120.1 C75.4,114.6 82,109.2 82,106.3 C82,105.2 100.7,94.6 102.7,94.6 C103.2,94.6 103.2,98.6 102.8,103.7 C102.3,111 101.6,113.7 99.2,117.9 C95.8,124 94.6,124.8 46,153.5 C17.2,170.5 13.1,172.6 10.1,172.2 C5.8,171.5 2.3,168.3 1,163.7 C0.5,161.7 0,151.9 0,142 C0,124 0,123.8 2.8,118.5 C4.5,115.2 7.4,111.7 10.3,109.6 C12.9,107.6 35.3,94.3 60,80 C84.8,65.8 105.7,53.6 106.6,53.1 C107.8,52.3 108,49.7 107.8,39 L107.5,25.8 L68.4,48.5 C46.8,60.9 28.2,72 27,73.1 C25.7,74.2 23.9,76.9 22.9,79.2 C21.3,82.7 19.7,84 11.3,88.7 C6,91.7 1.3,94.2 0.8,94.4 C0.4,94.6 0,89.3 0,82.6 C0,69.7 0.7,66.9 5.2,63 C6.4,61.9 26.2,50.2 49,37.1 C120.2,-3.8 112.7,0.1 119,0.1 C124.2,0.1 125.7,0.7 139.1,8.5 C147,13.1 171.2,27 192.9,39.5 C221.7,56 233,63 234.9,65.5 L237.5,68.9 L237.8,115.9 C238,161.4 238,163 236,167.1 C233.7,171.8 230.5,173.9 225.9,173.8 C222.7,173.7 218.4,171.3 179.5,147.2 L159.5,134.8 L159.2,122.7 C159,114.2 159.3,110.6 160.1,110.6 C160.7,110.6 173.5,118.2 188.6,127.5 L216,144.5 L216,112.7 C216,82 215.9,80.8 213.9,78.2 C212.8,76.8 206.6,72.5 200.2,68.7 C180.3,57 130.9,28.6 130.5,28.6 C130.2,28.6 130,50.8 130,77.9 L130,127.3 L132.3,129.3 C133.5,130.5 156.6,144.1 183.5,159.6 C210.5,175.1 233.3,188.5 234.4,189.4 C235.4,190.3 236.9,192.6 237.7,194.4 C238.8,197.1 238.8,198.1 237.6,201 C236.9,202.8 234.9,205.2 233.4,206.3 C231.8,207.4 212.5,218.7 190.5,231.3 C168.5,244 145.6,257.3 139.5,260.8 C124.2,269.8 119.8,271 112.6,268.4 Z M158.5,224.5 C177.8,213.5 194.7,203.3 196.3,201.8 C199.6,198.7 199.7,196.2 196.8,193.3 C195.5,192.1 178.6,181.9 159.1,170.6 C127.5,152.4 123.2,150.2 119.1,150.2 C114.9,150.1 111.7,151.7 82.5,168.5 C42.1,191.7 40.2,192.9 39.4,196.1 C38.2,200.9 38,200.8 93,232.3 C111.9,243.1 115,244.6 119,244.6 C123.2,244.6 127,242.6 158.5,224.5 Z" id="Shape" filter="url(#filter-1)"></path>
            </g>
        </g>
    </g>
</svg>